<svg width="83" height="156" viewBox="0 0 83 156" fill="none" xmlns="http://www.w3.org/2000/svg">
<path d="M12.5454 17.2581H6.70312L9.20695 41.74L9.76335 61.2141H16.4402L13.6582 41.74L12.5454 17.2581Z" fill="#216E7A"/>
<path d="M15.6309 64.5526H10.9365C10.6068 64.5526 10.3495 64.8377 10.383 65.1656L12.8241 89.0344L13.3651 107.968C13.3737 108.269 13.6202 108.509 13.9213 108.509H19.4159C19.7545 108.509 20.0146 108.209 19.9667 107.874L17.2754 89.0344L16.1867 65.0838C16.1732 64.7866 15.9283 64.5526 15.6309 64.5526Z" fill="#216E7A"/>
<path d="M27.0005 81.2447L21.6456 81.2447C21.3184 81.2447 21.0618 81.5258 21.0915 81.8516L22.2453 94.5163L22.2453 105.942C22.2453 106.273 22.532 106.531 22.8609 106.495L28.5665 105.886C28.8837 105.852 29.1075 105.559 29.0566 105.244L27.2987 94.3703C27.2934 94.337 27.291 94.3033 27.2917 94.2696L27.5568 81.813C27.5634 81.5011 27.3124 81.2447 27.0005 81.2447Z" fill="#216E7A"/>
<path d="M19.2481 111.847H14.5537C14.224 111.847 13.9667 112.132 14.0002 112.46L16.4366 136.283C16.4397 136.313 16.4403 136.344 16.4383 136.375L15.9231 144.361C15.9024 144.682 16.157 144.953 16.4784 144.953H21.8874C22.2371 144.953 22.5001 144.634 22.4336 144.291L20.9003 136.369C20.8951 136.342 20.892 136.315 20.8907 136.288L19.8039 112.378C19.7904 112.081 19.5455 111.847 19.2481 111.847Z" fill="#216E7A"/>
<path d="M3.47545 122.078C6.71289 120.148 11.3526 113.68 11.6907 108.786C11.7119 108.479 11.4653 108.287 11.2084 108.456C9.18896 109.781 2.95061 116.67 2.78463 121.671C2.77224 122.044 3.15459 122.269 3.47545 122.078Z" fill="#216E7A"/>
<path d="M1.31739 103.601C2.50838 107.053 7.11508 107.626 10.3237 107.485C10.5312 107.475 10.7328 107.344 10.7222 107.137C10.6388 105.506 5.31584 103.253 1.81798 102.973C1.46781 102.945 1.20283 103.269 1.31739 103.601Z" fill="#216E7A"/>
<path d="M19.392 74.287C23.4288 73.4197 30.2904 68.4331 31.9099 63.7449C32.0102 63.4545 31.8233 63.1937 31.5257 63.2704C29.0441 63.9103 20.2609 68.8618 18.8464 73.7089C18.7454 74.0548 19.0398 74.3627 19.392 74.287Z" fill="#216E7A"/>
<path d="M75.1145 89.2013C72.6797 92.5359 65.3328 96.775 60.3913 96.347C60.0851 96.3204 59.923 96.0435 60.1141 95.8029C61.7083 93.7964 69.805 87.7876 74.8084 88.4676C75.1654 88.5161 75.3269 88.9103 75.1145 89.2013Z" fill="#216E7A"/>
<path d="M82.144 31.126C77.8023 35.0292 66.1152 38.5993 59.7942 36.1623C59.5075 36.0518 59.4111 35.7347 59.6432 35.5333C62.1163 33.3868 75.7625 27.3786 82.0314 30.326C82.351 30.4762 82.4066 30.8899 82.144 31.126Z" fill="#216E7A"/>
<path d="M64.1442 18.5211C64.4294 23.0877 61.1839 31.7937 56.7726 34.6025C56.5133 34.7675 56.2094 34.6512 56.2009 34.344C56.1249 31.598 58.7989 20.7205 63.4531 18.1336C63.7615 17.9622 64.1222 18.169 64.1442 18.5211Z" fill="#216E7A"/>
<path d="M72.3861 48.9217C70.3024 44.5176 63.4233 38.2981 58.7248 38.2661C58.4175 38.264 58.2202 38.5318 58.36 38.8054C59.6601 41.3502 67.2661 49.9486 72.0189 49.5932C72.3505 49.5684 72.5283 49.2222 72.3861 48.9217Z" fill="#216E7A"/>
<path d="M39.1217 16.4804L33.2891 16.1453L34.3848 40.7305L33.8236 60.2045L40.4895 60.5874L38.8288 40.9857L39.1217 16.4804Z" fill="#216E7A"/>
<path d="M56.1952 0.953632L50.4297 0.00958252L48.9446 24.5743L46.3468 43.8824L52.936 44.9614L53.3373 25.2935L56.1952 0.953632Z" fill="#216E7A"/>
<path d="M62.836 52.6062L55.3027 51.1989L53.2727 75.7422L49.8072 94.9196L58.4166 96.528L59.0123 76.8145L62.836 52.6062Z" fill="#216E7A"/>
<path d="M39.4874 63.8739L34.8007 63.6047C34.4716 63.5858 34.1983 63.8556 34.213 64.1849L35.2813 88.1545L34.7356 107.088C34.727 107.389 34.9593 107.642 35.2599 107.66L40.7455 107.975C41.0835 107.994 41.3604 107.71 41.3318 107.372L39.7253 88.4097L40.0118 64.436C40.0154 64.1386 39.7844 63.8909 39.4874 63.8739Z" fill="#216E7A"/>
<path d="M51.5962 48.125L46.9636 47.3665C46.6382 47.3132 46.3382 47.5529 46.3183 47.882L44.8704 71.8316L42.3447 90.6039C42.3046 90.9023 42.5091 91.1785 42.8063 91.2271L48.2286 92.115C48.5628 92.1697 48.8679 91.9158 48.8748 91.5773L49.2631 72.5509L52.0589 48.739C52.0936 48.4436 51.8898 48.1731 51.5962 48.125Z" fill="#216E7A"/>
<path d="M56.8245 99.6292L50.4318 98.4349C50.1008 98.3731 49.7821 98.6151 49.7544 98.9493L47.7766 122.861L44.3571 143.073C44.3042 143.386 44.5253 143.671 44.8425 143.7L52.0066 144.343C52.3301 144.372 52.6183 144.122 52.6326 143.8L53.5162 123.934L57.2582 100.242C57.3041 99.9521 57.114 99.6833 56.8245 99.6292Z" fill="#216E7A"/>
<path d="M40.3936 111.298L35.6983 111.029C35.3695 111.01 35.0963 111.279 35.1105 111.608L35.912 130.168C35.9131 130.195 35.9123 130.222 35.9096 130.249L34.5794 143.285C34.5481 143.591 34.772 143.865 35.0787 143.895L42.2068 144.593C42.563 144.628 42.859 144.322 42.8127 143.967L40.9684 129.833L40.9181 111.852C40.9173 111.558 40.6874 111.315 40.3936 111.298Z" fill="#216E7A"/>
<path d="M24.9704 48.0064C23.5025 52.3652 28.059 57.1623 31.5768 59.9368C31.736 60.0624 31.9655 60.099 32.0994 59.9467C33.4098 58.456 29.3215 51.225 25.776 47.8225C25.513 47.5701 25.0868 47.6609 24.9704 48.0064Z" fill="#216E7A"/>
<path d="M68.5204 110.757C64.3001 110.463 61.539 104.759 60.2071 100.67C60.145 100.479 60.1885 100.251 60.3788 100.187C62.1013 99.6091 67.0995 105.735 68.9825 110.073C69.1295 110.412 68.8888 110.783 68.5204 110.757Z" fill="#216E7A"/>
<path d="M28.313 108.764L22.9581 108.764C22.6309 108.764 22.3743 109.045 22.404 109.371L23.5578 122.035L23.5578 144.056C23.5578 144.387 23.8445 144.644 24.1733 144.609L29.9219 143.995C30.2226 143.963 30.4426 143.696 30.4172 143.395L28.6031 121.839L28.8693 109.332C28.8759 109.02 28.6249 108.764 28.313 108.764Z" fill="#216E7A"/>
</svg>
