<svg width="95" height="88" viewBox="0 0 95 88" fill="none" xmlns="http://www.w3.org/2000/svg">
<path d="M93.9976 45.1176C94.6881 34.9112 85.6035 19.7981 82.5912 19.2448C82.5912 19.2448 65.899 45.1176 58.1094 60.6969C58.3543 63.1139 59.3682 64.3924 59.2223 66.8174C59.0715 69.3211 56.0755 70.7349 57.2748 72.9379C58.5901 75.3537 64.2299 74.0507 64.2299 74.0507C72.0195 72.6598 72.5759 61.2535 73.4105 60.9753C74.8015 62.9227 76.2721 69.0432 75.6361 71.2688C75.0796 73.2163 73.3344 74.1798 73.967 75.9981C74.6711 78.0219 76.7489 78.7801 78.6964 78.7801C83.4258 79.0585 87.3206 75.4418 89.8245 72.1033C94.5539 64.8701 94.5539 52.351 93.9976 45.1176Z" fill="#0A5D69"/>
<rect x="22.4961" y="10.3423" width="68.4379" height="51.1893" rx="25.5946" fill="#F3F6F7"/>
<path d="M48.8833 60.6969C54.1691 45.1176 50.8306 18.4101 38.3115 12.5679C33.674 12.7547 26.627 17.0191 26.627 17.0191C26.627 17.0191 10.5048 36.4494 8.82207 51.5162C9.1003 57.3585 12.439 66.8174 11.3259 74.8853C9.93491 76.2151 9.6567 76.5545 8.82207 77.9455C7.70928 80.1711 10.7694 81.5621 12.9951 81.5621C15.7772 81.5621 19.3246 80.5378 22.1758 77.9455C25.8639 74.5922 25.5142 70.1558 26.627 65.9828C28.5745 68.4866 28.2962 77.9455 26.9052 80.1711C24.9578 83.5096 25.236 84.6224 26.627 86.0134C30.5219 88.1459 38.0334 86.0134 41.3718 81.5621C46.1012 74.0507 46.4993 69.3212 48.8833 60.6969Z" fill="#0A5D69"/>
<circle cx="7.74975" cy="11.7333" r="7.51147" fill="#0A5D69"/>
<circle cx="30.5623" cy="8.39483" r="7.51147" fill="#0A5D69"/>
<rect x="0.238281" y="5.89099" width="43.956" height="39.5048" rx="19.7524" fill="#F3F6F7"/>
<ellipse cx="30.6359" cy="22.362" rx="4.92901" ry="6.4558" transform="rotate(-31.8762 30.6359 22.362)" fill="#0A5D69"/>
<ellipse rx="4.92901" ry="6.4558" transform="matrix(-0.978754 -0.205037 -0.205037 0.978754 11.9516 27.6868)" fill="#0A5D69"/>
<path d="M18.8773 32.5984C19.2852 34.6681 23.0503 35.6587 23.6066 35.6587C24.1628 35.6587 27.7711 32.5367 26.6668 30.3728C25.554 28.4254 18.5991 30.0946 18.8773 32.5984Z" fill="#0A5D69"/>
<ellipse cx="13.3148" cy="26.478" rx="1.39101" ry="1.66922" fill="#F3F6F7"/>
<ellipse cx="28.3383" cy="22.0268" rx="1.39101" ry="1.66922" fill="#F3F6F7"/>
</svg>
